<svg width="50" height="53" viewBox="0 0 50 53" xmlns="http://www.w3.org/2000/svg" xmlns:xlink="http://www.w3.org/1999/xlink"><title>Button-1</title><defs><path id="a" d="M49.5 28.5L25 53 .5 28.5 25 4z"/><mask id="b" x="0" y="0" width="49" height="49" fill="#fff"><use xlink:href="#a"/></mask></defs><g fill="none" fill-rule="evenodd"><use stroke="#202020" mask="url(#b)" stroke-width="2" fill="#FFF" xlink:href="#a"/><path fill="#202020" d="M50 25L25 50 0 25 25 0"/><path d="M18.06 23.545V30h-1.79v-6.455H14V22h6.332v1.545H18.06zm10.083 1.11c0 1.282-.51 2.11-1.526 2.484l2.03 2.86h-2.202l-1.778-2.56H23.43V30h-1.79v-8h3.04c1.245 0 2.134.21 2.666.63.53.42.797 1.094.797 2.025zm-1.824.006c0-.43-.12-.72-.35-.88-.23-.16-.63-.24-1.21-.24h-1.34v2.37h1.3c.61 0 1.03-.1 1.25-.3.22-.19.33-.51.33-.94zm6.9 5.34h-1.79v-3.16L28.66 22h1.937l1.733 2.976L34.062 22H36l-2.776 4.84V30z" fill="#FFF"/></g></svg>
